<svg width="36" height="31" viewBox="0 0 36 31" fill="none" xmlns="http://www.w3.org/2000/svg">
<path d="M13.0586 22.7881H30.0361C30.9443 22.7881 31.7793 22.1289 31.7793 21.1035C31.7793 20.0781 30.9443 19.4189 30.0361 19.4189H13.542C13.0879 19.4189 12.7949 19.0967 12.7217 18.5986L12.5166 17.1045H30.2998C32.7314 17.1045 34.0645 15.6689 34.4307 13.208L35.3828 6.63086C35.4268 6.41113 35.4561 6.14746 35.4561 5.92773C35.4561 4.81445 34.7383 4.02344 33.332 4.02344H10.6562L10.4951 2.91016C10.29 1.38672 9.55762 0.610352 7.68262 0.610352H2.89258C1.86719 0.610352 0.988281 1.48926 0.988281 2.5293C0.988281 3.58398 1.86719 4.46289 2.89258 4.46289H6.81836L8.94238 18.9062C9.29395 21.3379 10.627 22.7881 13.0586 22.7881ZM31.4131 7.37793L30.6807 12.9443C30.6074 13.4424 30.3438 13.7354 29.875 13.7354H12.0332L11.125 7.37793H31.4131ZM14.3477 30.5371C15.9443 30.5371 17.2334 29.2627 17.2334 27.6514C17.2334 26.0547 15.9443 24.7656 14.3477 24.7656C12.7656 24.7656 11.4619 26.0547 11.4619 27.6514C11.4619 29.2627 12.7656 30.5371 14.3477 30.5371ZM27.5752 30.5371C29.1572 30.5371 30.4463 29.2627 30.4463 27.6514C30.4463 26.0547 29.1572 24.7656 27.5752 24.7656C25.9785 24.7656 24.6748 26.0547 24.6748 27.6514C24.6748 29.2627 25.9785 30.5371 27.5752 30.5371Z" fill="white"/>
</svg>
